<?xml version="1.0" encoding="UTF-8"?>
<svg id="Layer_1" data-name="Layer 1" xmlns="http://www.w3.org/2000/svg" viewBox="0 0 70 40">
  <defs>
    <style>
      .cls-1 {
        fill: #2b3a6d;
      }

      .cls-2 {
        fill: #2a396c;
      }

      .cls-3 {
        fill: #8fc7eb;
      }

      .cls-4 {
        fill: #2b396c;
      }
    </style>
  </defs>
  <path class="cls-2" d="M41.1,25.31v-10.85l-4.6-1.38c-1.73-.67-2.11-2.29-1.46-3.94,2.66.72,5.38,1.25,8.01,2.06.46.14,1.55.42,1.82.78.35.47.41.81.93,1.23,1.67,1.36,3.56.7,5.44.91.53.06.95.49,1.02,1.02-.12,2.21.16,4.6,0,6.79-.05.62-.55,1.14-1.19,1.14-1.72.01-3.39-.19-5,.62-.51.26-.92.67-1.43.95-1.05.57-2.35.83-3.53.68Z"/>
  <path class="cls-3" d="M39.37,5.47c-.1,0-.18-.04-.28-.05-3.43-.12-6.94.1-10.37,0-.55.06-1.11.63-1.15,1.19.15,6.62-.19,13.27,0,19.88,0,.08.02.14.05.21,0,.08-.22-.04-.25-.06-.38-.21-.63-.63-.66-1.07V5.84c.06-.69.55-1.18,1.23-1.27h10.24c.53.04,1.04.39,1.19.91Z"/>
  <path class="cls-2" d="M35.48,15.37v1.34h-2.7s-.06.06-.06.06v1.12s.07.06.11.06c.24.04.64-.02.91,0,1.7.1,2.14.95,2.01,2.57-.19,2.29-2.92,1.41-4.45,1.53v-1.38h2.79s.06-.06.06-.06v-1.19c-.58-.12-1.19.04-1.77-.11-1.24-.31-1.34-1.41-1.25-2.51s.94-1.52,1.92-1.53c.08,0,.17.05.26.05.73,0,1.46,0,2.18.04Z"/>
  <path class="cls-2" d="M51.21,35.33c0-.12.13-.14.19-.22.17-.19.27-.4.29-.66.25-2.74-2.13-1.85-3.91-1.97-.05-.01-.14.02-.15.06v5.58s.1.06.15.07c.45.05,1.08,0,1.56,0,.84,0,1.99.23,2.38-.8.22-.57.22-1.82-.51-2.05ZM48.97,33.63s.06-.07.06-.07h1.21s.07.06.11.04v1.13c-.47.02-.92.05-1.38,0v-1.1ZM50.48,37.06s-.09.04-.11.04h-1.34l-.06-.06v-1.17l.06-.06h1.34s.07.06.11.04v1.21Z"/>
  <path class="cls-2" d="M33.99,32.48c.14.02.33.17.4.29l1.26,2.39c.1.02.07-.02.1-.06.04-.06.09-.15.13-.22.44-.76.77-1.61,1.22-2.37.31-.09.88-.07,1.08.22.02.03.11.22.11.24v5.14s-.06.06-.06.06h-1.19v-3.54c-.1-.02-.07.01-.1.06-.34.53-.59,1.22-.9,1.78-.08.1-.74.1-.84.03-.19-.14-.67-1.43-.85-1.7l-.12-.08v3.46h-1.12v-5.7c.27.03.63-.04.89,0Z"/>
  <path class="cls-2" d="M45.12,33.67c-.04-.55-.32-1-.86-1.17-.53-.16-1.61-.15-2.17-.09-.66.06-1.2.35-1.32,1.05.05,1.16-.11,2.44,0,3.58.04.47.24.85.67,1.05.52.25,2.27.25,2.83.07.52-.17.76-.56.86-1.08-.06-1.11.09-2.32,0-3.41ZM43.78,37l-.06.06h-1.62v-3.46h1.62s.06.06.06.07v3.33Z"/>
  <path class="cls-2" d="M16.77,32.48v2.2h1.69v-2.14s.06-.06.06-.06h1.21s.06.06.06.06v5.57s-.06.06-.06.06h-1.21s-.06-.06-.06-.06v-2.27h-1.69v2.27s-.06.06-.06.06h-1.21s-.06-.06-.06-.06v-5.57s.06-.06.06-.06h1.27Z"/>
  <path class="cls-2" d="M25.59,32.51l-1.06-.08c-1.37-.02-1.31.44-1.62,1.59-.32,1.17-.78,2.74-.98,3.9-.01.09-.02.18-.01.26h1.21l.3-1.27h1.77c.13.08.17,1.1.32,1.27h1.21s.08-.06.06-.09l-1.2-5.58ZM23.69,35.76l.44-2.04c.01-.11.42-.09.46-.07.09.06.35,1.87.39,2.11h-1.29Z"/>
  <path class="cls-2" d="M12.18,32.55c-.06-.13-.58-.06-.75-.07-.44-.02-1.08-.16-1.44.19-.29.27-.44,1.1-.54,1.5-.35,1.33-.66,2.68-.97,4.01h1.21l.3-1.27,1.79-.02.28,1.29h1.3l-1.18-5.63ZM10.25,35.76c.14-.62.25-1.27.42-1.89.01-.05.03-.17.05-.2.03-.05.41-.04.46.02l.41,2.07h-1.34Z"/>
  <path class="cls-2" d="M25.07,15.41v2.81h-3.95c-.78,0-1.97-1.37-1.97-2.14v-.67h5.92Z"/>
  <path class="cls-2" d="M6.49,32.48v1.17h-2.27s-.06.06-.06.06v.97s.09.04.11.04h1.21c.29,0,.81.33.98.57.51.72.4,2.72-.79,2.86-.9.15-1.82-.04-2.72.02v-1.17h2.36s.06-.06.06-.06v-1.02s-.09-.04-.11-.04h-1.25c-.32,0-.86-.39-1.02-.67-.24-.43-.25-1.59-.04-2.03.56-1.21,2.51-.59,3.54-.71Z"/>
  <path class="cls-2" d="M67.16,32.48v1.17h-2.12v1.02s.06.06.06.06h1.88v1.12h-1.88s-.06.06-.06.06v1.04s.06.06.06.06h2.1v1.17h-3.46v-5.7h3.41Z"/>
  <path class="cls-2" d="M25.07,18.74v2.81h-3.22s-.41-.13-.48-.17c-1.04-.44-1.61-1.53-1.53-2.64h5.23Z"/>
  <path class="cls-2" d="M25.07,14.93h-2.53c-.06,0-.48-.17-.57-.21-.64-.31-1.17-.95-1.34-1.64-.03-.13-.18-1-.03-1h4.41s.06.06.06.06v2.79Z"/>
  <path class="cls-1" d="M36.74,1.71c-.17.77-.35,1.53-1.27,1.6-1.61.12-3.43-.06-5.06-.05-.28-.08-.55-.32-.68-.57-.08-.15-.27-.74-.28-.89,0-.04.02-.09.05-.09h7.24Z"/>
  <path class="cls-4" d="M59.73,32.48v4.54h1.94v1.1s-.06.06-.06.06h-3.15s-.06-.06-.06-.06v-5.57s.06-.06.06-.06h1.27Z"/>
  <path class="cls-2" d="M30.6,32.48v4.6c0,.22-.22.67-.39.82-.18.17-.69.37-.93.37h-.97v-1.21h.95v-4.52s.06-.06.06-.06h1.27Z"/>
  <path class="cls-2" d="M54.37,32.48h1.27s.06.06.06.06v5.57s-.06.06-.06.06h-1.21s-.06-.06-.06-.06v-5.64Z"/>
  <path class="cls-2" d="M25.07,22.02v2.81h-.67c-.78,0-1.97-1.37-1.97-2.14v-.67h2.64Z"/>
  <path class="cls-2" d="M32.92,26.05c1.64-.21,1.85,2.3.25,2.41s-1.76-2.21-.25-2.41Z"/>
</svg>